# xmcd
#
# Track frame offsets:
#	150
#	13125
#	25494
#	37523
#	50809
#	62954
#	76656
#	90204
#	103524
#	116584
#	129070
#	142105
#	155320
#	167834
#	179912
#	191824
#	205421
#	217281
#	231035
#	243297
#	256643
#	268870
#	281722
#	294099
#
# Disc length: 4077 seconds
#
# Revision: 1
# Processed by: cddbd v1.4PL0 Copyright (c) Steve Scherf et al.
# Submitted via: CDmax 1.9
#
DISCID=580feb18
DTITLE=Moon Mullican - Moon's Tunes
DYEAR=1900
DGENRE=Country
TTITLE0=Foggy River (Master)
TTITLE1=I Left My Heart In Texas
TTITLE2=Triflin' Woman Blues
TTITLE3=Why Don't You Love Me
TTITLE4=Oh She's Gone (But Not Forgotten)
TTITLE5=The Tie That Binds
TTITLE6=Over The Waves
TTITLE7=Sweeter Than The Flowers
TTITLE8=Save A Little Dream For Me
TTITLE9=A Maiden's Prayer
TTITLE10=Jole Blon Is Gone Amen
TTITLE11=Broken Dreams
TTITLE12=I Don't Know What To Do
TTITLE13=What My Eyes See My Heart Believes
TTITLE14=I'm So Blue
TTITLE15=Wait A Minute
TTITLE16=Trouble Trouble
TTITLE17=I'll Sail My Ship Alone
TTITLE18=Moons Tune
TTITLE19=Sweeter Than The Flowers No 2
TTITLE20=Heartless Lover
TTITLE21=My Tears Will Pour Just Like Rain
TTITLE22=I Was Sorta Wonderin'
TTITLE23=A Million Regrets
EXTD=
EXTT0=
EXTT1=
EXTT2=
EXTT3=
EXTT4=
EXTT5=
EXTT6=
EXTT7=
EXTT8=
EXTT9=
EXTT10=
EXTT11=
EXTT12=
EXTT13=
EXTT14=
EXTT15=
EXTT16=
EXTT17=
EXTT18=
EXTT19=
EXTT20=
EXTT21=
EXTT22=
EXTT23=
PLAYORDER=
